<svg width="24" height="24" viewBox="0 0 24 24" fill="none" xmlns="http://www.w3.org/2000/svg">
<rect x="0.5" y="0.5" width="23" height="23" rx="11.5" stroke="#0B8C00"/>
<path d="M8.25 6.5H14.6895C14.7559 6.50006 14.8195 6.52652 14.8662 6.57324L15.9268 7.63379C15.9738 7.68107 16 7.74444 16 7.81055V11H16.5C17.0524 11 17.5 11.4476 17.5 12V14.5H16V17.25C16 17.388 15.888 17.5 15.75 17.5H8.25C8.112 17.5 8 17.388 8 17.25V14.5H6.5V12C6.5 11.4476 6.94763 11 7.5 11H8V6.75C8 6.612 8.112 6.5 8.25 6.5ZM8.5 17H15.5V13.75H8.5V17ZM8.5 11.75H15.2676C15.1394 11.9255 15.0625 12.1409 15.0625 12.375C15.0625 12.9617 15.5383 13.4375 16.125 13.4375C16.7117 13.4375 17.1875 12.9617 17.1875 12.375C17.1875 11.7879 16.7116 11.3125 16.125 11.3125C15.8912 11.3125 15.6755 11.3886 15.5 11.5166V8.5H14V7H8.5V11.75Z" stroke="#0B8C00"/>
</svg>
