<svg width="18" height="17" viewBox="0 0 18 17" fill="none" xmlns="http://www.w3.org/2000/svg">
<path d="M9.70313 0.423704C9.56899 0.164953 9.29744 0 9.00299 0C8.70853 0 8.43698 0.164953 8.30284 0.423704L5.89486 5.08768L0.663397 5.90921C0.372215 5.95449 0.130108 6.15826 0.0385005 6.43642C-0.0531074 6.71457 0.022142 7.0186 0.22826 7.22561L3.9711 10.929L3.14663 16.1007C3.10082 16.3886 3.22187 16.6797 3.46071 16.8511C3.69954 17.0225 4.01363 17.0484 4.27864 16.9158L9.00299 14.5418L13.7241 16.9158C13.9858 17.0484 14.3032 17.0225 14.542 16.8511C14.7808 16.6797 14.9019 16.3918 14.8561 16.1007L14.0283 10.929L17.7712 7.22561C17.9806 7.0186 18.0525 6.71457 17.9609 6.43642C17.8693 6.15826 17.6305 5.95449 17.336 5.90921L12.1078 5.08768L9.70313 0.423704Z" fill="#FFC107"/>
</svg>
